<svg width="512" height="512" viewBox="0 0 512 512" fill="none" xmlns="http://www.w3.org/2000/svg">
<g clip-path="url(#clip0_31_2)">
<rect width="512" height="512" fill="url(#paint0_radial_31_2)"/>
<path d="M95.2801 312C92.0694 312 89.6041 310.624 87.8841 307.872C86.1641 305.12 85.9921 302.196 87.3681 299.1L135.7 183.688C137.42 179.675 140.229 177.668 144.128 177.668C148.256 177.668 151.065 179.675 152.556 183.688L201.06 299.444C202.321 302.655 202.092 305.579 200.372 308.216C198.767 310.739 196.301 312 192.976 312C191.256 312 189.593 311.541 187.988 310.624C186.497 309.592 185.408 308.216 184.72 306.496L142.064 200.544H146.88L103.536 306.496C102.733 308.331 101.529 309.707 99.9241 310.624C98.4334 311.541 96.8854 312 95.2801 312ZM104.396 282.416L111.276 267.624H178.7L185.58 282.416H104.396ZM267.13 312.688C258.186 312.688 250.159 310.624 243.05 306.496C235.94 302.253 230.322 296.52 226.194 289.296C222.066 282.072 219.944 273.931 219.83 264.872V186.44C219.83 183.803 220.632 181.681 222.238 180.076C223.958 178.471 226.079 177.668 228.602 177.668C231.239 177.668 233.36 178.471 234.966 180.076C236.571 181.681 237.374 183.803 237.374 186.44V232.88C241.387 228.064 246.203 224.28 251.822 221.528C257.555 218.661 263.804 217.228 270.57 217.228C278.94 217.228 286.451 219.349 293.102 223.592C299.752 227.72 304.97 233.396 308.754 240.62C312.652 247.729 314.602 255.813 314.602 264.872C314.602 273.931 312.48 282.072 308.238 289.296C304.11 296.52 298.491 302.253 291.382 306.496C284.272 310.624 276.188 312.688 267.13 312.688ZM267.13 297.208C272.978 297.208 278.195 295.832 282.782 293.08C287.368 290.213 290.98 286.315 293.618 281.384C296.37 276.453 297.746 270.949 297.746 264.872C297.746 258.68 296.37 253.176 293.618 248.36C290.98 243.544 287.368 239.76 282.782 237.008C278.195 234.141 272.978 232.708 267.13 232.708C261.396 232.708 256.179 234.141 251.478 237.008C246.891 239.76 243.279 243.544 240.642 248.36C238.004 253.176 236.686 258.68 236.686 264.872C236.686 270.949 238.004 276.453 240.642 281.384C243.279 286.315 246.891 290.213 251.478 293.08C256.179 295.832 261.396 297.208 267.13 297.208ZM383.423 312.688C374.25 312.688 366.051 310.624 358.827 306.496C351.718 302.253 346.099 296.577 341.971 289.468C337.958 282.244 335.951 274.103 335.951 265.044C335.951 255.756 337.958 247.5 341.971 240.276C345.984 233.052 351.488 227.433 358.483 223.42C365.478 219.292 373.504 217.228 382.563 217.228C389.328 217.228 395.52 218.547 401.139 221.184C406.758 223.707 411.803 227.548 416.275 232.708C417.88 234.543 418.454 236.435 417.995 238.384C417.536 240.333 416.275 242.053 414.211 243.544C412.606 244.691 410.828 245.092 408.879 244.748C406.93 244.289 405.152 243.257 403.547 241.652C397.928 235.689 390.934 232.708 382.563 232.708C376.715 232.708 371.555 234.084 367.083 236.836C362.611 239.473 359.114 243.2 356.591 248.016C354.068 252.832 352.807 258.508 352.807 265.044C352.807 271.236 354.068 276.74 356.591 281.556C359.228 286.372 362.84 290.213 367.427 293.08C372.014 295.832 377.346 297.208 383.423 297.208C387.436 297.208 390.934 296.749 393.915 295.832C397.011 294.8 399.82 293.252 402.343 291.188C404.178 289.697 406.07 288.895 408.019 288.78C409.968 288.551 411.688 289.067 413.179 290.328C415.128 291.933 416.218 293.768 416.447 295.832C416.676 297.781 415.988 299.559 414.383 301.164C406.127 308.847 395.807 312.688 383.423 312.688Z" fill="url(#paint1_radial_31_2)"/>
<g filter="url(#filter0_b_31_2)">
<path d="M95.2801 312C92.0694 312 89.6041 310.624 87.8841 307.872C86.1641 305.12 85.9921 302.196 87.3681 299.1L135.7 183.688C137.42 179.675 140.229 177.668 144.128 177.668C148.256 177.668 151.065 179.675 152.556 183.688L201.06 299.444C202.321 302.655 202.092 305.579 200.372 308.216C198.767 310.739 196.301 312 192.976 312C191.256 312 189.593 311.541 187.988 310.624C186.497 309.592 185.408 308.216 184.72 306.496L142.064 200.544H146.88L103.536 306.496C102.733 308.331 101.529 309.707 99.9241 310.624C98.4334 311.541 96.8854 312 95.2801 312ZM104.396 282.416L111.276 267.624H178.7L185.58 282.416H104.396ZM267.13 312.688C258.186 312.688 250.159 310.624 243.05 306.496C235.94 302.253 230.322 296.52 226.194 289.296C222.066 282.072 219.944 273.931 219.83 264.872V186.44C219.83 183.803 220.632 181.681 222.238 180.076C223.958 178.471 226.079 177.668 228.602 177.668C231.239 177.668 233.36 178.471 234.966 180.076C236.571 181.681 237.374 183.803 237.374 186.44V232.88C241.387 228.064 246.203 224.28 251.822 221.528C257.555 218.661 263.804 217.228 270.57 217.228C278.94 217.228 286.451 219.349 293.102 223.592C299.752 227.72 304.97 233.396 308.754 240.62C312.652 247.729 314.602 255.813 314.602 264.872C314.602 273.931 312.48 282.072 308.238 289.296C304.11 296.52 298.491 302.253 291.382 306.496C284.272 310.624 276.188 312.688 267.13 312.688ZM267.13 297.208C272.978 297.208 278.195 295.832 282.782 293.08C287.368 290.213 290.98 286.315 293.618 281.384C296.37 276.453 297.746 270.949 297.746 264.872C297.746 258.68 296.37 253.176 293.618 248.36C290.98 243.544 287.368 239.76 282.782 237.008C278.195 234.141 272.978 232.708 267.13 232.708C261.396 232.708 256.179 234.141 251.478 237.008C246.891 239.76 243.279 243.544 240.642 248.36C238.004 253.176 236.686 258.68 236.686 264.872C236.686 270.949 238.004 276.453 240.642 281.384C243.279 286.315 246.891 290.213 251.478 293.08C256.179 295.832 261.396 297.208 267.13 297.208ZM383.423 312.688C374.25 312.688 366.051 310.624 358.827 306.496C351.718 302.253 346.099 296.577 341.971 289.468C337.958 282.244 335.951 274.103 335.951 265.044C335.951 255.756 337.958 247.5 341.971 240.276C345.984 233.052 351.488 227.433 358.483 223.42C365.478 219.292 373.504 217.228 382.563 217.228C389.328 217.228 395.52 218.547 401.139 221.184C406.758 223.707 411.803 227.548 416.275 232.708C417.88 234.543 418.454 236.435 417.995 238.384C417.536 240.333 416.275 242.053 414.211 243.544C412.606 244.691 410.828 245.092 408.879 244.748C406.93 244.289 405.152 243.257 403.547 241.652C397.928 235.689 390.934 232.708 382.563 232.708C376.715 232.708 371.555 234.084 367.083 236.836C362.611 239.473 359.114 243.2 356.591 248.016C354.068 252.832 352.807 258.508 352.807 265.044C352.807 271.236 354.068 276.74 356.591 281.556C359.228 286.372 362.84 290.213 367.427 293.08C372.014 295.832 377.346 297.208 383.423 297.208C387.436 297.208 390.934 296.749 393.915 295.832C397.011 294.8 399.82 293.252 402.343 291.188C404.178 289.697 406.07 288.895 408.019 288.78C409.968 288.551 411.688 289.067 413.179 290.328C415.128 291.933 416.218 293.768 416.447 295.832C416.676 297.781 415.988 299.559 414.383 301.164C406.127 308.847 395.807 312.688 383.423 312.688Z" fill="white" fill-opacity="0.9"/>
</g>
</g>
<defs>
<filter id="filter0_b_31_2" x="65.3041" y="157.668" width="373.379" height="175.02" filterUnits="userSpaceOnUse" color-interpolation-filters="sRGB">
<feFlood flood-opacity="0" result="BackgroundImageFix"/>
<feGaussianBlur in="BackgroundImageFix" stdDeviation="10"/>
<feComposite in2="SourceAlpha" operator="in" result="effect1_backgroundBlur_31_2"/>
<feBlend mode="normal" in="SourceGraphic" in2="effect1_backgroundBlur_31_2" result="shape"/>
</filter>
<radialGradient id="paint0_radial_31_2" cx="0" cy="0" r="1" gradientUnits="userSpaceOnUse" gradientTransform="rotate(45.2784) scale(727.621)">
<stop stop-color="#8CFFA1"/>
<stop offset="1" stop-color="#40C057"/>
</radialGradient>
<radialGradient id="paint1_radial_31_2" cx="0" cy="0" r="1" gradientUnits="userSpaceOnUse" gradientTransform="translate(324.5 312) rotate(-135) scale(193.04)">
<stop stop-color="white"/>
<stop offset="1" stop-color="white" stop-opacity="0"/>
</radialGradient>
<clipPath id="clip0_31_2">
<rect width="512" height="512" fill="white"/>
</clipPath>
</defs>
</svg>
